<svg width="148" height="46" viewBox="0 0 148 46" fill="none" xmlns="http://www.w3.org/2000/svg">
<path d="M55.12 28.744C55.12 24.136 58.128 20.68 62.64 20.68C65.008 20.68 66.864 21.672 67.792 23.368L68.016 21.192H71.632V36.2C71.632 41.48 68.464 44.776 63.344 44.776C58.8 44.776 55.696 42.184 55.216 37.96H59.12C59.376 40.008 60.944 41.224 63.344 41.224C66.032 41.224 67.76 39.528 67.76 36.904V34.28C66.768 35.752 64.816 36.68 62.544 36.68C58.064 36.68 55.12 33.32 55.12 28.744ZM59.056 28.648C59.056 31.304 60.752 33.288 63.312 33.288C66 33.288 67.664 31.4 67.664 28.648C67.664 25.96 66.032 24.104 63.312 24.104C60.72 24.104 59.056 26.056 59.056 28.648Z" fill="#0EE89F"/>
<path d="M133.8 29.2H137.512C137.544 30.576 138.568 31.44 140.36 31.44C142.184 31.44 143.176 30.704 143.176 29.552C143.176 28.752 142.76 28.176 141.352 27.856L138.504 27.184C135.656 26.544 134.28 25.2 134.28 22.672C134.28 19.568 136.904 17.712 140.552 17.712C144.104 17.712 146.504 19.76 146.536 22.832H142.824C142.792 21.488 141.896 20.624 140.392 20.624C138.856 20.624 137.96 21.328 137.96 22.512C137.96 23.408 138.664 23.984 140.008 24.304L142.856 24.976C145.512 25.584 146.856 26.8 146.856 29.232C146.856 32.432 144.136 34.416 140.232 34.416C136.296 34.416 133.8 32.304 133.8 29.2Z" fill="#0061E8"/>
<path d="M0.64 27.408V26.032H4.576V27.408C4.576 29.2 5.568 30.608 7.872 30.608C10.176 30.608 11.136 29.296 11.136 27.248V10.608H15.232V27.472C15.232 31.6 12.352 34.416 7.904 34.416C3.104 34.416 0.64 31.44 0.64 27.408ZM30.3923 18.192H34.2963V34H30.6803L30.3923 31.888C29.4323 33.392 27.3843 34.416 25.2723 34.416C21.6243 34.416 19.4803 31.952 19.4803 28.08V18.192H23.3843V26.704C23.3843 29.712 24.5683 30.928 26.7443 30.928C29.2083 30.928 30.3923 29.488 30.3923 26.48V18.192ZM45.088 34.416C40.384 34.416 37.088 30.992 37.088 26.096C37.088 21.136 40.32 17.712 44.96 17.712C49.696 17.712 52.704 20.88 52.704 25.808V26.992L40.8 27.024C41.088 29.808 42.56 31.216 45.152 31.216C47.296 31.216 48.704 30.384 49.152 28.88H52.768C52.096 32.336 49.216 34.416 45.088 34.416ZM44.992 20.912C42.688 20.912 41.28 22.16 40.896 24.528H48.832C48.832 22.352 47.328 20.912 44.992 20.912ZM86.2048 18.192H90.1088V34H86.4928L86.2048 31.888C85.2448 33.392 83.1968 34.416 81.0848 34.416C77.4368 34.416 75.2928 31.952 75.2928 28.08V18.192H79.1968V26.704C79.1968 29.712 80.3808 30.928 82.5568 30.928C85.0208 30.928 86.2048 29.488 86.2048 26.48V18.192ZM96.093 15.024C94.749 15.024 93.693 13.968 93.693 12.656C93.693 11.344 94.749 10.32 96.093 10.32C97.373 10.32 98.429 11.344 98.429 12.656C98.429 13.968 97.373 15.024 96.093 15.024ZM94.141 34V18.192H98.045V34H94.141ZM107.455 34H103.551V21.456H100.511V18.192H103.551V13.264H107.455V18.192H110.527V21.456H107.455V34ZM111.869 26.064C111.869 21.136 115.421 17.744 120.317 17.744C125.213 17.744 128.765 21.136 128.765 26.064C128.765 30.992 125.213 34.384 120.317 34.384C115.421 34.384 111.869 30.992 111.869 26.064ZM115.773 26.064C115.773 28.944 117.629 30.896 120.317 30.896C123.005 30.896 124.861 28.944 124.861 26.064C124.861 23.184 123.005 21.232 120.317 21.232C117.629 21.232 115.773 23.184 115.773 26.064Z" fill="white"/>
<path d="M54.9325 25.744C54.9325 21.136 57.9405 17.68 62.4525 17.68C64.8205 17.68 66.6765 18.672 67.6045 20.368L67.8285 18.192H71.4445V33.2C71.4445 38.48 68.2765 41.776 63.1565 41.776C58.6125 41.776 55.5085 39.184 55.0285 34.96H58.9325C59.1885 37.008 60.7565 38.224 63.1565 38.224C65.8445 38.224 67.5725 36.528 67.5725 33.904V31.28C66.5805 32.752 64.6285 33.68 62.3565 33.68C57.8765 33.68 54.9325 30.32 54.9325 25.744ZM58.8685 25.648C58.8685 28.304 60.5645 30.288 63.1245 30.288C65.8125 30.288 67.4765 28.4 67.4765 25.648C67.4765 22.96 65.8445 21.104 63.1245 21.104C60.5325 21.104 58.8685 23.056 58.8685 25.648Z" fill="#78FFD2"/>
<path d="M130.644 29.2H134.356C134.388 30.576 135.412 31.44 137.204 31.44C139.028 31.44 140.02 30.704 140.02 29.552C140.02 28.752 139.604 28.176 138.196 27.856L135.348 27.184C132.5 26.544 131.124 25.2 131.124 22.672C131.124 19.568 133.748 17.712 137.396 17.712C140.948 17.712 143.348 19.76 143.38 22.832H139.668C139.636 21.488 138.74 20.624 137.236 20.624C135.7 20.624 134.804 21.328 134.804 22.512C134.804 23.408 135.508 23.984 136.852 24.304L139.7 24.976C142.356 25.584 143.7 26.8 143.7 29.232C143.7 32.432 140.98 34.416 137.076 34.416C133.14 34.416 130.644 32.304 130.644 29.2Z" fill="#3187FF"/>
</svg>
